<svg preserveAspectRatio="none" overflow="visible" style="display: block;" width="16.387" height="16.2247" viewBox="0 0 16.387 16.2247" fill="none" xmlns="http://www.w3.org/2000/svg">
<path id="Vector" d="M14 2.35569C12.5232 0.900291 10.4831 0 8.22946 0C3.72275 0 0.0686246 3.60062 0.0686246 8.04257C0.0686246 9.52069 0.473235 10.9052 1.1787 12.0955L1.15783 12.0576L0 16.2247L4.32555 15.1064C5.45154 15.7226 6.79493 16.0851 8.22452 16.0851H8.22782C12.7345 16.0835 16.387 12.4823 16.387 8.04094C16.387 5.82105 15.4746 3.81163 13.9994 2.35623L14 2.35569ZM8.22782 14.7266H8.22507C6.95195 14.7266 5.76008 14.3803 4.74278 13.7781L4.77353 13.7949L4.52593 13.6504L1.95937 14.3143L2.64397 11.8477L2.48256 11.595C1.832 10.5876 1.44551 9.36 1.44551 8.04311C1.44551 4.35213 4.48201 1.35963 8.22727 1.35963C11.9725 1.35963 15.009 4.35213 15.009 8.04311C15.009 11.7341 11.9736 14.7266 8.22782 14.7266ZM11.9478 9.72141C11.7441 9.62078 10.7417 9.13547 10.555 9.06784C10.3678 9.00075 10.2317 8.96774 10.0955 9.16901C9.96045 9.36974 9.56956 9.82205 9.45043 9.95623C9.33185 10.0909 9.21217 10.1072 9.00849 10.0071C8.37714 9.75496 7.83474 9.41897 7.36315 9.00508L7.36864 9.00995C6.92999 8.60958 6.55393 8.15131 6.25033 7.64598L6.23496 7.61785C6.11637 7.41712 6.22233 7.30837 6.3239 7.20828C6.41558 7.11847 6.52812 6.97347 6.62969 6.85661C6.70984 6.75976 6.77847 6.64885 6.83062 6.52982L6.83391 6.52062C6.85752 6.47355 6.87125 6.4189 6.87125 6.36047C6.87125 6.2896 6.85093 6.22359 6.8158 6.16732L6.81689 6.16894C6.76529 6.06831 6.35793 5.07929 6.18829 4.67675C6.0225 4.28504 5.85395 4.3386 5.72933 4.33211C5.61075 4.3267 5.4746 4.32562 5.33845 4.32562C5.12159 4.33103 4.92889 4.42733 4.79604 4.57612L4.79549 4.5772C4.35519 4.98893 4.08179 5.56947 4.08179 6.21277C4.08179 6.22683 4.08179 6.24144 4.08234 6.25551V6.25335C4.15426 7.04705 4.45621 7.7596 4.92066 8.34014L4.91407 8.33202C5.79466 9.61916 6.96842 10.6488 8.34585 11.3424L8.39746 11.3656C8.69831 11.4998 9.0837 11.6432 9.47788 11.766L9.55968 11.7882C9.80234 11.8639 10.0818 11.9078 10.3716 11.9078C10.538 11.9078 10.7016 11.8932 10.8597 11.8656L10.8427 11.8677C11.4296 11.7471 11.9165 11.3981 12.2135 10.9214L12.2185 10.9122C12.3091 10.7142 12.3618 10.4832 12.3618 10.2403C12.3618 10.1402 12.353 10.0423 12.336 9.94703L12.3376 9.95731C12.2871 9.87345 12.1509 9.82367 11.9467 9.7225L11.9478 9.72141Z" fill="#F1F1E6"/>
</svg>
